<svg width="35" height="35" viewBox="0 0 35 35" fill="none" xmlns="http://www.w3.org/2000/svg">
<g clip-path="url(#clip0_1345_20117)">
<path d="M15.4116 3.48491C16.2185 2.29422 17.9725 2.29423 18.7794 3.48491L22.7174 9.29628C22.9807 9.68486 23.3703 9.97041 23.8202 10.1045L30.5359 12.1067C31.8984 12.5129 32.4345 14.156 31.5736 15.2876L27.2847 20.9251C27.0039 21.2942 26.8577 21.7483 26.8703 22.2119L27.063 29.3002C27.102 30.7317 25.6888 31.7542 24.3413 31.2695L17.7839 28.9112C17.3389 28.7512 16.8521 28.7512 16.4071 28.9112L9.8497 31.2695C8.50217 31.7542 7.08906 30.7317 7.12799 29.3002L7.32075 22.2119C7.33336 21.7483 7.18711 21.2942 6.90627 20.9251L2.61742 15.2876C1.75654 14.156 2.29258 12.5129 3.65513 12.1067L10.3708 10.1045C10.8207 9.9704 11.2103 9.68486 11.4736 9.29628L15.4116 3.48491Z" fill="#DBDBDB"/>
</g>
<defs>
<clipPath id="clip0_1345_20117">
<rect width="35" height="35" fill="white"/>
</clipPath>
</defs>
</svg>
