<svg width="64" height="30" viewBox="0 0 64 30" fill="none" xmlns="http://www.w3.org/2000/svg">
<path d="M0 4C0 1.79086 1.79086 0 4 0H60C62.2091 0 64 1.79086 64 4V26C64 28.2091 62.2091 30 60 30H4C1.79086 30 0 28.2091 0 26V4Z" fill="#35C5F0"/>
<rect x="10.5" y="12" width="7" height="8" fill="white"/>
<path d="M10 10.5H18" stroke="white"/>
<path d="M11.5 10L16.5 10" stroke="white" stroke-width="2"/>
<path d="M31.472 9.954V11.13C31.472 12.81 30.576 14.462 28.42 15.148L29.358 16.632C31.864 15.806 32.984 13.622 32.984 11.13V9.954H31.472ZM31.85 9.954V11.298C31.85 13.636 32.942 15.694 35.35 16.464L36.26 15.008C34.216 14.364 33.348 12.852 33.348 11.298V9.954H31.85ZM36.904 9.282V17.108H38.766V9.282H36.904ZM38.248 12.432V13.972H40.488V12.432H38.248ZM30.114 17.654V19.152H36.904V22.246H38.766V17.654H30.114ZM50.2449 9.282V22.246H52.0089V9.282H50.2449ZM45.9749 13.706V15.218H48.1169V13.706H45.9749ZM47.6269 9.492V21.658H49.3629V9.492H47.6269ZM43.1749 11.396V12.726C43.1749 14.938 42.5169 17.262 40.6129 18.452L41.7189 19.824C43.7769 18.536 44.5749 15.638 44.5749 12.726V11.396H43.1749ZM43.5949 11.396V12.726C43.5949 15.582 44.3509 18.298 46.4089 19.516L47.5009 18.158C45.6249 17.066 44.9809 14.882 44.9809 12.726V11.396H43.5949ZM41.1029 10.584V12.082H46.8849V10.584H41.1029Z" fill="white"/>
</svg>
