<svg width="344" height="39" viewBox="0 0 344 39" fill="none" xmlns="http://www.w3.org/2000/svg">
<path d="M0 3C0 1.34315 1.34315 0 3 0H341C342.657 0 344 1.34315 344 3V36C344 37.6569 342.657 39 341 39H3C1.34315 39 0 37.6569 0 36V3Z" fill="#35C5F0"/>
<path d="M161.528 18.784V20.976H162.856V18.784H161.528ZM162.152 13.44C160.072 13.44 158.6 14.592 158.6 16.304C158.6 18.016 160.072 19.152 162.152 19.152C164.248 19.152 165.72 18.016 165.72 16.304C165.72 14.592 164.248 13.44 162.152 13.44ZM162.152 14.464C163.528 14.464 164.472 15.216 164.472 16.304C164.472 17.408 163.528 18.144 162.152 18.144C160.792 18.144 159.848 17.408 159.848 16.304C159.848 15.216 160.792 14.464 162.152 14.464ZM167.672 12.8V23.856H169V12.8H167.672ZM168.44 17.68V18.784H171.112V17.68H168.44ZM159.848 25.824V26.928H169.512V25.824H159.848ZM159.848 22.912V26.304H161.176V22.912H159.848ZM157.944 21.712C160.424 21.712 163.848 21.68 166.872 21.12L166.776 20.144C163.832 20.592 160.312 20.624 157.768 20.624L157.944 21.712ZM176.167 21.264V24.816H177.479V21.264H176.167ZM180.791 21.232V24.8H182.087V21.232H180.791ZM172.519 24.368V25.472H185.623V24.368H172.519ZM174.103 13.856V14.928H182.695V17.168H174.151V21.136H175.463V18.224H184.007V13.856H174.103ZM174.151 20.544V21.632H184.343V20.544H174.151Z" fill="white"/>
</svg>
