<svg width="347" height="41" viewBox="0 0 347 41" fill="none" xmlns="http://www.w3.org/2000/svg">
<rect x="0.5" y="0.5" width="346" height="40" rx="2.5" fill="white" stroke="#35C5F0"/>
<path d="M150.472 16.276V18.166C150.472 20.574 149.478 23.066 147.294 24.088L148.414 25.586C150.864 24.382 151.984 21.372 151.984 18.166V16.276H150.472ZM150.85 16.276V18.166C150.85 21.274 151.872 24.158 154.21 25.348L155.33 23.864C153.258 22.856 152.334 20.49 152.334 18.166V16.276H150.85ZM155.848 15.282V28.246H157.724V15.282H155.848ZM157.304 20.266V21.82H159.6V20.266H157.304ZM163.029 16.724V17.816C163.029 19.454 162.091 21.134 159.935 21.834L160.887 23.29C163.379 22.478 164.569 20.266 164.569 17.816V16.724H163.029ZM163.407 16.724V17.816C163.407 20.168 164.583 22.282 167.019 23.052L167.971 21.61C165.857 20.938 164.933 19.356 164.933 17.816V16.724H163.407ZM160.425 16.206V17.676H167.481V16.206H160.425ZM168.783 15.296V24.648H170.659V15.296H168.783ZM162.021 26.538V28.022H170.981V26.538H162.021ZM162.021 23.808V27.28H163.883V23.808H162.021ZM177.722 17.564V18.04C177.722 19.468 176.812 20.896 174.712 21.47L175.58 22.912C178.058 22.212 179.22 20.252 179.22 18.04V17.564H177.722ZM178.072 17.564V18.04C178.072 20.168 179.262 22.044 181.754 22.702L182.594 21.246C180.508 20.7 179.584 19.37 179.584 18.04V17.564H178.072ZM175.174 16.57V18.026H182.132V16.57H175.174ZM177.722 15.24V17.2H179.584V15.24H177.722ZM181.824 18.67V20.168H184.288V18.67H181.824ZM183.798 15.282V22.87H185.66V15.282H183.798ZM177.022 23.444V28.106H185.66V23.444H177.022ZM183.84 24.9V26.636H178.856V24.9H183.84ZM187.129 22.744V24.214H198.875V22.744H187.129ZM192.029 23.486V28.246H193.877V23.486H192.029ZM188.473 15.772V21.512H197.489V15.772H195.641V17.242H190.321V15.772H188.473ZM190.321 18.698H195.641V20.028H190.321V18.698ZM207.764 15.282V28.246H209.612V15.282H207.764ZM209.192 20.336V21.89H211.488V20.336H209.192ZM199.392 17.2V18.684H206.938V17.2H199.392ZM203.186 19.412C201.296 19.412 199.896 20.7 199.896 22.506C199.896 24.312 201.296 25.6 203.186 25.6C205.076 25.6 206.476 24.312 206.476 22.506C206.476 20.7 205.076 19.412 203.186 19.412ZM203.186 20.924C204.068 20.924 204.698 21.512 204.698 22.506C204.698 23.5 204.068 24.088 203.186 24.088C202.304 24.088 201.674 23.5 201.674 22.506C201.674 21.512 202.304 20.924 203.186 20.924ZM202.248 15.492V17.76H204.11V15.492H202.248ZM220.698 15.282V28.246H222.574V15.282H220.698ZM216.876 16.626V16.962C216.876 20.434 215.532 22.786 211.808 24.578L212.774 26.062C217.38 23.836 218.724 20.588 218.724 16.626H216.876ZM212.494 16.626V18.096H217.758V16.626H212.494Z" fill="#35C5F0"/>
<path d="M120 27V14H136.5V27H120Z" fill="white" stroke="#35C5F0"/>
<circle cx="133" cy="18" r="1.5" fill="#35C5F0"/>
<path d="M126 19L120 24.5V27H136.5V25L132 21L129.5 24L126 19Z" fill="#35C5F0" stroke="#35C5F0"/>
</svg>
