<svg width="24" height="24" viewBox="0 0 24 24" fill="none" xmlns="http://www.w3.org/2000/svg">
<g id="icn_apple">
<path id="path188" d="M18.6947 12.7403C18.6668 9.70551 21.2322 8.24854 21.3482 8.17751C19.9046 6.11449 17.658 5.83187 16.8566 5.79862C14.9457 5.6097 13.1261 6.89738 12.1576 6.89738C11.189 6.89738 9.69124 5.82583 8.10686 5.85606C6.02117 5.88628 4.10103 7.03946 3.02724 8.86216C0.862635 12.5302 2.47487 17.9666 4.58222 20.944C5.61424 22.3995 6.84275 24.0393 8.45808 23.9788C10.0146 23.9184 10.6026 22.9965 12.4809 22.9965C14.3593 22.9965 14.8885 23.9789 16.5332 23.9501C18.2058 23.9184 19.2672 22.4629 20.2914 21.003C21.4735 19.3133 21.9625 17.678 21.9903 17.5918C21.9532 17.5767 18.7287 16.3691 18.6947 12.7403Z" fill="#292929"/>
<path id="path190" d="M15.6046 3.82977C16.4618 2.81564 17.0405 1.40552 16.8811 0C15.6463 0.0484161 14.1517 0.804063 13.2651 1.81819C12.4714 2.71447 11.7751 4.15023 11.9638 5.52713C13.3409 5.63141 14.7473 4.84241 15.6046 3.82977Z" fill="#292929"/>
</g>
</svg>
