<svg width="8" height="8" viewBox="0 0 8 8" fill="none" xmlns="http://www.w3.org/2000/svg">
<g id="icn_arrow">
<path id="arrow" d="M5 4L5.35355 4.35355C5.44732 4.25979 5.5 4.13261 5.5 4C5.5 3.86739 5.44732 3.74021 5.35355 3.64645L5 4ZM2.35355 0.646447L2 0.292893L1.29289 1L1.64645 1.35355L2.35355 0.646447ZM1.64645 6.64645L1.29289 7L2 7.70711L2.35355 7.35355L1.64645 6.64645ZM5.35355 3.64645L2.35355 0.646447L1.64645 1.35355L4.64645 4.35355L5.35355 3.64645ZM4.64645 3.64645L1.64645 6.64645L2.35355 7.35355L5.35355 4.35355L4.64645 3.64645Z" fill="#424242"/>
</g>
</svg>
