<svg width="24" height="24" viewBox="0 0 24 24" fill="none" xmlns="http://www.w3.org/2000/svg">
<g id="icn_blog">
<path id="Subtract" fill-rule="evenodd" clip-rule="evenodd" d="M1 5C1 3.34315 2.34315 2 4 2H19C20.6569 2 22 3.34315 22 5V14C22 15.6569 20.6569 17 19 17H14.4744L12 22L9.52564 17H4C2.34315 17 1 15.6569 1 14V5ZM5.34375 12H4.52734V6.30469H5.34375V8.375C5.49219 8.23177 5.65495 8.11458 5.83203 8.02344C5.99609 7.9375 6.18229 7.89453 6.39062 7.89453C6.88802 7.90755 7.2513 8.08464 7.48047 8.42578C7.59245 8.55339 7.66927 8.72135 7.71094 8.92969C7.75 9.13542 7.76953 9.48177 7.76953 9.96875C7.76953 10.4479 7.75 10.7917 7.71094 11C7.66927 11.2188 7.59245 11.3919 7.48047 11.5195C7.36849 11.6758 7.22135 11.8008 7.03906 11.8945C6.85938 11.9909 6.64323 12.0417 6.39062 12.0469C5.96354 12.0365 5.61458 11.8789 5.34375 11.5742V12ZM6.60156 8.80859C6.48958 8.74349 6.33724 8.71094 6.14453 8.71094C5.96224 8.71094 5.81771 8.7487 5.71094 8.82422C5.59896 8.89974 5.51693 8.9987 5.46484 9.12109C5.41536 9.24349 5.38281 9.3763 5.36719 9.51953C5.35156 9.66276 5.34375 9.8125 5.34375 9.96875C5.34375 10.112 5.35156 10.2578 5.36719 10.4062C5.38281 10.5573 5.41536 10.694 5.46484 10.8164C5.51693 10.9388 5.59896 11.0378 5.71094 11.1133C5.81771 11.1914 5.96224 11.2305 6.14453 11.2305C6.33724 11.2305 6.48958 11.194 6.60156 11.1211C6.71354 11.0456 6.79297 10.9492 6.83984 10.832C6.89193 10.7096 6.92708 10.5716 6.94531 10.418C6.95052 10.2721 6.95312 10.1224 6.95312 9.96875C6.95312 9.80729 6.95052 9.64974 6.94531 9.49609C6.92708 9.35286 6.89193 9.22005 6.83984 9.09766C6.79297 8.97526 6.71354 8.87891 6.60156 8.80859ZM8.98828 11.7773C8.78516 11.6263 8.68359 11.3724 8.68359 11.0156V6.30469H9.5V10.9531C9.5 11.138 9.60156 11.2305 9.80469 11.2305H10.0859V12H9.72266C9.42578 12 9.18099 11.9258 8.98828 11.7773ZM10.6523 10.9453C10.582 10.7214 10.5469 10.3958 10.5469 9.96875C10.5469 9.54167 10.582 9.21354 10.6523 8.98438C10.7253 8.76042 10.8372 8.57161 10.9883 8.41797C11.1003 8.28255 11.2565 8.16146 11.457 8.05469C11.6549 7.95312 11.9089 7.89974 12.2188 7.89453C12.5391 7.89974 12.7982 7.95312 12.9961 8.05469C13.1914 8.16146 13.3424 8.28255 13.4492 8.41797C13.6107 8.57161 13.7253 8.76042 13.793 8.98438C13.8581 9.21354 13.8906 9.54167 13.8906 9.96875C13.8906 10.3958 13.8581 10.7214 13.793 10.9453C13.7253 11.1693 13.6107 11.3633 13.4492 11.5273C13.3971 11.5872 13.3333 11.6458 13.2578 11.7031C13.1901 11.7682 13.1029 11.8242 12.9961 11.8711C12.7982 11.9831 12.5391 12.0417 12.2188 12.0469C11.9089 12.0417 11.6549 11.9831 11.457 11.8711C11.2565 11.7695 11.1003 11.6549 10.9883 11.5273C10.8372 11.3633 10.7253 11.1693 10.6523 10.9453ZM13.0352 10.5859C13.0612 10.4557 13.0742 10.2526 13.0742 9.97656C13.0742 9.6875 13.0612 9.47656 13.0352 9.34375C13.0091 9.21615 12.9557 9.10417 12.875 9.00781C12.8151 8.91667 12.7266 8.84505 12.6094 8.79297C12.4974 8.73828 12.3672 8.71094 12.2188 8.71094C12.0807 8.71094 11.9531 8.73828 11.8359 8.79297C11.724 8.84505 11.6328 8.91667 11.5625 9.00781C11.4922 9.10417 11.4414 9.21615 11.4102 9.34375C11.3789 9.47656 11.3633 9.6849 11.3633 9.96875C11.3633 10.25 11.3789 10.4557 11.4102 10.5859C11.4414 10.7188 11.4922 10.8359 11.5625 10.9375C11.6328 11.0156 11.724 11.0846 11.8359 11.1445C11.9531 11.2018 12.0807 11.2305 12.2188 11.2305C12.3672 11.2305 12.4974 11.2018 12.6094 11.1445C12.7266 11.0846 12.8151 11.0156 12.875 10.9375C12.9557 10.8359 13.0091 10.7188 13.0352 10.5859ZM17.0273 11.9922V11.5742C16.7591 11.8789 16.4102 12.0365 15.9805 12.0469C15.7174 12.0417 15.4987 11.9857 15.3242 11.8789C15.1419 11.7773 15.0026 11.668 14.9062 11.5508C14.7995 11.418 14.7227 11.2552 14.6758 11.0625C14.6263 10.8724 14.6016 10.5104 14.6016 9.97656C14.6016 9.43229 14.6263 9.0638 14.6758 8.87109C14.7227 8.68099 14.7995 8.52083 14.9062 8.39062C15.0026 8.26302 15.1419 8.14844 15.3242 8.04688C15.4987 7.95052 15.7174 7.89974 15.9805 7.89453C16.3841 7.89453 16.7331 8.05469 17.0273 8.375V7.94531H17.8438V11.9023C17.8333 12.5117 17.6576 12.9596 17.3164 13.2461C16.9727 13.5404 16.5612 13.6875 16.082 13.6875C15.5326 13.6771 15.0638 13.4505 14.6758 13.0078L15.3086 12.5039C15.4128 12.6003 15.5326 12.6823 15.668 12.75C15.806 12.8255 15.9492 12.8659 16.0977 12.8711C16.3763 12.8711 16.6003 12.7943 16.7695 12.6406C16.9362 12.4844 17.0221 12.2682 17.0273 11.9922ZM15.4492 9.32031C15.4284 9.44271 15.418 9.66146 15.418 9.97656C15.418 10.2865 15.4284 10.5 15.4492 10.6172C15.4674 10.7396 15.5104 10.8411 15.5781 10.9219C15.6328 10.9948 15.7161 11.0612 15.8281 11.1211C15.9349 11.194 16.0677 11.2305 16.2266 11.2305C16.3854 11.2305 16.5182 11.194 16.625 11.1211C16.7318 11.0612 16.8125 10.9948 16.8672 10.9219C16.9349 10.8411 16.9805 10.7396 17.0039 10.6172C17.0195 10.5 17.0273 10.2865 17.0273 9.97656C17.0273 9.66146 17.0195 9.44271 17.0039 9.32031C16.9805 9.19792 16.9349 9.09896 16.8672 9.02344C16.8125 8.95052 16.7318 8.87891 16.625 8.80859C16.5182 8.7487 16.3854 8.71615 16.2266 8.71094C16.0677 8.71615 15.9349 8.7487 15.8281 8.80859C15.7161 8.87891 15.6328 8.95052 15.5781 9.02344C15.5104 9.09896 15.4674 9.19792 15.4492 9.32031Z" fill="#757575"/>
</g>
</svg>
