<svg width="24" height="24" viewBox="0 0 24 24" fill="none" xmlns="http://www.w3.org/2000/svg">
<g id="icn_insta">
<path id="Vector" d="M11.726 1C8.81324 1 8.4477 1.01274 7.30368 1.06481C6.16191 1.11711 5.38255 1.29792 4.70061 1.56321C3.99521 1.83721 3.39684 2.20375 2.8007 2.80026C2.20412 3.39654 1.83768 3.99506 1.56284 4.70042C1.29695 5.38275 1.11597 6.16253 1.06457 7.30414C1.01341 8.44844 1 8.8143 1 11.7278C1 14.6413 1.01296 15.0058 1.0648 16.1501C1.11731 17.2922 1.29807 18.0717 1.56307 18.7538C1.83723 19.4594 2.20367 20.0579 2.80003 20.6542C3.39595 21.2509 3.99432 21.6184 4.69927 21.8924C5.38165 22.1577 6.16124 22.3385 7.30279 22.3908C8.4468 22.4428 8.81213 22.4556 11.7247 22.4556C14.6377 22.4556 15.0021 22.4428 16.1461 22.3908C17.2879 22.3385 18.0681 22.1577 18.7505 21.8924C19.4557 21.6184 20.0532 21.2509 20.6491 20.6542C21.2457 20.0579 21.6121 19.4594 21.8869 18.754C22.1506 18.0717 22.3316 17.2919 22.3852 16.1503C22.4366 15.006 22.45 14.6413 22.45 11.7278C22.45 8.8143 22.4366 8.44866 22.3852 7.30436C22.3316 6.1623 22.1506 5.38275 21.8869 4.70064C21.6121 3.99506 21.2457 3.39654 20.6491 2.80026C20.0525 2.20352 19.4559 1.83699 18.7498 1.56321C18.0661 1.29792 17.2863 1.11711 16.1445 1.06481C15.0005 1.01274 14.6363 1 11.7227 1H11.726ZM10.7639 2.93324C11.0494 2.93279 11.3681 2.93324 11.726 2.93324C14.5896 2.93324 14.929 2.94352 16.0598 2.99492C17.1055 3.04275 17.6731 3.21752 18.0511 3.36436C18.5516 3.5588 18.9085 3.79124 19.2836 4.16671C19.659 4.54218 19.8914 4.89977 20.0862 5.4004C20.233 5.77811 20.408 6.34579 20.4556 7.39175C20.507 8.52264 20.5181 8.86235 20.5181 11.7253C20.5181 14.5883 20.507 14.928 20.4556 16.0589C20.4078 17.1049 20.233 17.6726 20.0862 18.0503C19.8918 18.5509 19.659 18.9074 19.2836 19.2826C18.9083 19.6581 18.5519 19.8905 18.0511 20.085C17.6735 20.2325 17.1055 20.4068 16.0598 20.4546C14.9292 20.506 14.5896 20.5172 11.726 20.5172C8.86218 20.5172 8.52277 20.506 7.39217 20.4546C6.34647 20.4063 5.77893 20.2316 5.40065 20.0847C4.90014 19.8903 4.54264 19.6579 4.16726 19.2824C3.79188 18.9069 3.5595 18.5502 3.36466 18.0494C3.21786 17.6717 3.04291 17.104 2.99532 16.058C2.94393 14.9271 2.93365 14.5874 2.93365 11.7226C2.93365 8.85788 2.94393 8.51996 2.99532 7.38907C3.04313 6.34311 3.21786 5.77543 3.36466 5.39728C3.55906 4.89665 3.79188 4.53905 4.16726 4.16358C4.54264 3.78811 4.90014 3.55567 5.40065 3.36078C5.77871 3.21328 6.34647 3.03895 7.39217 2.9909C8.38156 2.9462 8.76498 2.93279 10.7639 2.93056V2.93324ZM17.451 4.7145C16.7404 4.7145 16.164 5.29044 16.164 6.00138C16.164 6.7121 16.7404 7.28872 17.451 7.28872C18.1615 7.28872 18.738 6.7121 18.738 6.00138C18.738 5.29067 18.1615 4.71405 17.451 4.71405V4.7145ZM11.726 6.21862C8.68432 6.21862 6.21821 8.68534 6.21821 11.7278C6.21821 14.7702 8.68432 17.2358 11.726 17.2358C14.7677 17.2358 17.2329 14.7702 17.2329 11.7278C17.2329 8.68534 14.7675 6.21862 11.7258 6.21862H11.726ZM11.726 8.15186C13.7003 8.15186 15.301 9.75276 15.301 11.7278C15.301 13.7026 13.7003 15.3037 11.726 15.3037C9.75147 15.3037 8.15097 13.7026 8.15097 11.7278C8.15097 9.75276 9.75147 8.15186 11.726 8.15186Z" fill="#757575"/>
</g>
</svg>
