<svg width="24" height="24" viewBox="0 0 24 24" fill="none" xmlns="http://www.w3.org/2000/svg">
<g id="icn_naver">
<path id="Vector 23" d="M8.08696 18L6 15H18L15.913 18H8.08696Z" fill="#757575"/>
<path id="Vector 24" d="M15 19H9L12 22L15 19Z" fill="#757575"/>
<path id="Exclude" fill-rule="evenodd" clip-rule="evenodd" d="M18 2H6V14H18V2ZM11.0871 6H9V11H11.0792V9.37536C11.0792 8.92289 11.043 8.77949 10.9944 8.58738C10.9788 8.52536 10.9618 8.45826 10.9444 8.37405C10.9444 8.37405 10.9517 8.30349 11.0076 8.37405C11.0639 8.44467 12.9209 11 12.9209 11H15V6H12.9208V7.49883C12.9208 8.012 12.9769 8.24152 13.0425 8.51017C13.0623 8.59096 13.0829 8.67529 13.1031 8.77194C13.1031 8.77194 13.0961 8.84427 13.0395 8.77194C12.9831 8.69935 11.0871 6 11.0871 6Z" fill="#757575"/>
</g>
</svg>
