<svg width="24" height="24" viewBox="0 0 24 24" fill="none" xmlns="http://www.w3.org/2000/svg">
<g id="btn_cart">
<g id="Group 33643">
<circle id="Ellipse 8" cx="10.5" cy="18.5" r="1.5" stroke="#757575" stroke-width="2"/>
<circle id="Ellipse 10" cx="16.5" cy="18.5" r="1.5" stroke="#757575" stroke-width="2"/>
<path id="Vector 22" d="M5.5 4.78571L4.51573 4.96238L4.52125 4.99312L4.52867 5.02345L5.5 4.78571ZM5 2L5.98427 1.82334L5.83649 1H5V2ZM7.81343 14.2377L6.8421 14.4755L7.81343 14.2377ZM18.6866 14.2377L17.7152 14L18.6866 14.2377ZM20.6971 6.02345L21.6684 6.26119L20.6971 6.02345ZM5.5 5.78571H19.7257V3.78571H5.5V5.78571ZM19.7257 5.78571L17.7152 14L19.6579 14.4755L21.6684 6.26119L19.7257 5.78571ZM17.7152 14H8.78476V16H17.7152V14ZM8.78476 14L6.47133 4.54798L4.52867 5.02345L6.8421 14.4755L8.78476 14ZM5 1H2V3H5V1ZM4.01573 2.17666L4.51573 4.96238L6.48427 4.60905L5.98427 1.82334L4.01573 2.17666ZM8.78476 14H8.78476L6.8421 14.4755C7.06116 15.3705 7.86334 16 8.78476 16V14ZM17.7152 14V16C18.6367 16 19.4388 15.3705 19.6579 14.4755L17.7152 14ZM19.7257 5.78571H19.7257L21.6684 6.26119C21.9767 5.00131 21.0228 3.78571 19.7257 3.78571V5.78571Z" fill="#757575"/>
</g>
</g>
</svg>
