<svg width="35" height="35" viewBox="0 0 35 35" fill="none" xmlns="http://www.w3.org/2000/svg">
<path d="M15.4116 2.48491C16.2185 1.29422 17.9725 1.29423 18.7794 2.48491L22.7174 8.29628C22.9807 8.68486 23.3703 8.97041 23.8202 9.10451L30.5359 11.1067C31.8984 11.5129 32.4345 13.156 31.5736 14.2876L27.2847 19.9251C27.0039 20.2942 26.8577 20.7483 26.8703 21.2119L27.063 28.3002C27.102 29.7317 25.6888 30.7542 24.3413 30.2695L17.7839 27.9112C17.3389 27.7512 16.8521 27.7512 16.4071 27.9112L9.8497 30.2695C8.50217 30.7542 7.08906 29.7317 7.12799 28.3002L7.32075 21.2119C7.33336 20.7483 7.18711 20.2942 6.90627 19.9251L2.61742 14.2876C1.75654 13.156 2.29258 11.5129 3.65513 11.1067L10.3708 9.10451C10.8207 8.9704 11.2103 8.68486 11.4736 8.29628L15.4116 2.48491Z" fill="#35C5F0"/>
</svg>
