<svg width="19" height="19" viewBox="0 0 19 19" fill="none" xmlns="http://www.w3.org/2000/svg">
<g id="icon_star">
<path id="Star 6" d="M8.36631 1.34895C8.80432 0.70258 9.75652 0.70258 10.1945 1.34895L12.3323 4.5037C12.4753 4.71464 12.6868 4.86965 12.9309 4.94245L16.5766 6.02934C17.3163 6.24986 17.6073 7.14183 17.14 7.75611L14.8117 10.8165C14.6593 11.0169 14.5799 11.2633 14.5867 11.5151L14.6914 15.3629C14.7125 16.14 13.9454 16.6951 13.2139 16.432L9.65411 15.1518C9.41256 15.0649 9.14828 15.0649 8.90673 15.1518L5.34698 16.432C4.61547 16.6951 3.84835 16.14 3.86948 15.3629L3.97412 11.5151C3.98096 11.2633 3.90158 11.0169 3.74912 10.8165L1.42088 7.75611C0.953552 7.14183 1.24454 6.24986 1.98421 6.02934L5.62989 4.94245C5.87408 4.86965 6.08557 4.71464 6.22852 4.5037L8.36631 1.34895Z" fill="#35C5F0"/>
</g>
</svg>
