<svg width="56" height="24" viewBox="0 0 56 24" fill="none" xmlns="http://www.w3.org/2000/svg">
<g id="icn_logo">
<g id="Group">
<path id="Vector" fill-rule="evenodd" clip-rule="evenodd" d="M14.531 18.2085H11.5772V15.5076C11.5772 15.2752 11.4855 15.0523 11.3223 14.888C11.159 14.7237 10.9376 14.6314 10.7067 14.6314C10.4759 14.6314 10.2544 14.7237 10.0912 14.888C9.92794 15.0523 9.83623 15.2752 9.83623 15.5076V18.2085H6.87051C6.63963 18.2085 6.41822 18.3008 6.25497 18.4651C6.09171 18.6294 6 18.8522 6 19.0846C6 19.317 6.09171 19.5398 6.25497 19.7041C6.41822 19.8684 6.63963 19.9607 6.87051 19.9607H14.531C14.7618 19.9607 14.9832 19.8684 15.1465 19.7041C15.3097 19.5398 15.4015 19.317 15.4015 19.0846C15.4015 18.8522 15.3097 18.6294 15.1465 18.4651C14.9832 18.3008 14.7618 18.2085 14.531 18.2085ZM8.70757 8.5287C8.70757 5.74924 9.9563 5.33837 10.7067 5.33837C11.4512 5.33837 12.7059 5.75529 12.7059 8.5287V8.74622C12.7059 11.5257 11.4512 11.9366 10.7067 11.9366C9.9563 11.9366 8.70157 11.5196 8.70157 8.74622V8.5287H8.70757ZM10.7067 13.6888C13.0121 13.6888 14.4469 11.7976 14.4469 8.74622V8.5287C14.4469 5.47734 13.0121 3.5861 10.7067 3.5861C8.39539 3.5861 6.96056 5.47734 6.96056 8.5287V8.74622C6.96056 11.7976 8.39539 13.6949 10.7067 13.6949V13.6888ZM26.0396 9.25378H16.6982C16.4673 9.25378 16.2459 9.34608 16.0827 9.51039C15.9194 9.6747 15.8277 9.89754 15.8277 10.1299C15.8277 10.3623 15.9194 10.5851 16.0827 10.7494C16.2459 10.9137 16.4673 11.006 16.6982 11.006H26.0396C26.2705 11.006 26.4919 10.9137 26.6552 10.7494C26.8184 10.5851 26.9101 10.3623 26.9101 10.1299C26.9101 9.89754 26.8184 9.6747 26.6552 9.51039C26.4919 9.34608 26.2705 9.25378 26.0396 9.25378ZM25.1091 18.6193C20.8586 19.7251 19.4358 19.0967 19.0216 18.7704C18.7514 18.5589 18.6313 18.287 18.6313 17.8761V17.3505H24.7849C25.2652 17.3505 25.6614 16.9577 25.6614 16.4743V13.4048C25.6614 12.9214 25.2652 12.5287 24.7849 12.5287H17.7608C17.53 12.5287 17.3085 12.621 17.1453 12.7853C16.982 12.9496 16.8903 13.1725 16.8903 13.4048C16.8903 13.6372 16.982 13.86 17.1453 14.0244C17.3085 14.1887 17.53 14.281 17.7608 14.281H23.9144V15.5982H17.7548C17.2745 15.5982 16.8843 15.9909 16.8843 16.4743V17.8761C16.8707 18.3147 16.9604 18.7503 17.1461 19.1473C17.3319 19.5443 17.6083 19.8913 17.9529 20.1601C18.6734 20.7221 19.718 21 21.0808 21C22.3115 21 23.8063 20.7704 25.5474 20.3172C25.6585 20.2883 25.7629 20.2375 25.8546 20.168C25.9463 20.0984 26.0235 20.0113 26.0817 19.9117C26.14 19.8121 26.1782 19.702 26.1941 19.5875C26.2101 19.4731 26.2035 19.3566 26.1747 19.2447C26.1459 19.1328 26.0956 19.0277 26.0264 18.9355C25.9573 18.8432 25.8708 18.7655 25.7718 18.7069C25.6729 18.6482 25.5634 18.6098 25.4497 18.5937C25.336 18.5777 25.2203 18.5843 25.1091 18.6133V18.6193ZM18.1931 7.73112H24.6768C24.9077 7.73112 25.1291 7.63881 25.2924 7.4745C25.4556 7.3102 25.5474 7.08735 25.5474 6.85498C25.5474 6.62262 25.4556 6.39977 25.2924 6.23547C25.1291 6.07116 24.9077 5.97885 24.6768 5.97885H19.0636V3.87613C19.0636 3.64377 18.9719 3.42092 18.8086 3.25661C18.6454 3.09231 18.424 3 18.1931 3C17.9622 3 17.7408 3.09231 17.5775 3.25661C17.4143 3.42092 17.3226 3.64377 17.3226 3.87613V6.85498C17.3226 7.33837 17.7128 7.73112 18.1931 7.73112Z" fill="black"/>
<path id="Vector_2" d="M49.8321 3.90634C49.8321 3.40578 49.4289 3 48.9315 3C48.4342 3 48.031 3.40578 48.031 3.90634V11.1571C48.031 11.6577 48.4342 12.0634 48.9315 12.0634C49.4289 12.0634 49.8321 11.6577 49.8321 11.1571V3.90634Z" fill="black"/>
<path id="Vector_3" fill-rule="evenodd" clip-rule="evenodd" d="M44.7289 11.024C44.8085 11.2427 44.9712 11.4207 45.1812 11.5187C45.3912 11.6167 45.6312 11.6268 45.8486 11.5467C46.0659 11.4665 46.2427 11.3028 46.3401 11.0915C46.4375 10.8801 46.4475 10.6385 46.3679 10.4198C46.3379 10.3412 45.7675 8.80044 44.3387 7.70074L46.56 5.2234C46.673 5.09705 46.747 4.94034 46.7731 4.77238C46.7991 4.60442 46.7761 4.43246 46.7067 4.27746C46.6373 4.12246 46.5247 3.99112 46.3824 3.89944C46.2402 3.80777 46.0745 3.75973 45.9056 3.76116H40.4725C40.2416 3.76116 40.0202 3.85347 39.8569 4.01778C39.6937 4.18208 39.602 4.40493 39.602 4.6373C39.602 4.86966 39.6937 5.09251 39.8569 5.25682C40.0202 5.42112 40.2416 5.51343 40.4725 5.51343H43.9545L39.8241 10.1297C39.6688 10.3028 39.5883 10.5309 39.6001 10.7637C39.6119 10.9966 39.7152 11.2152 39.8871 11.3714C40.0591 11.5277 40.2857 11.6088 40.517 11.5969C40.7484 11.585 40.9656 11.4811 41.1208 11.308L43.168 9.01192C43.8581 9.52973 44.3972 10.2247 44.7289 11.024ZM47.7667 19.024H43.5583C43.4936 19.024 43.4296 19.0112 43.3699 18.9863C43.3101 18.9614 43.2559 18.9249 43.2102 18.8789C43.1644 18.8329 43.1282 18.7783 43.1034 18.7181C43.0787 18.658 43.066 18.5936 43.066 18.5285V17.3503H48.259V18.5285C48.259 18.8004 48.0369 19.024 47.7667 19.024ZM49.1295 13.3624C48.6492 13.3624 48.259 13.7551 48.259 14.2385V15.598H43.066V14.2385C43.066 14.0061 42.9743 13.7833 42.811 13.619C42.6478 13.4547 42.4263 13.3624 42.1955 13.3624C41.9646 13.3624 41.7432 13.4547 41.5799 13.619C41.4167 13.7833 41.325 14.0061 41.325 14.2385V18.5285C41.3265 19.1242 41.5623 19.695 41.9808 20.1162C42.3993 20.5373 42.9664 20.7747 43.5583 20.7763H47.7667C48.3585 20.7747 48.9256 20.5373 49.3441 20.1162C49.7626 19.695 49.9984 19.1242 50 18.5285V14.2385C50 13.7551 49.6098 13.3624 49.1295 13.3624ZM31.4972 5.3382C32.83 5.3382 32.8961 7.90014 32.8961 8.40769C32.8961 8.92128 32.83 11.4832 31.4972 11.4832C30.1705 11.4832 30.1044 8.92128 30.1044 8.41373C30.1044 7.89409 30.1705 5.3382 31.4972 5.3382ZM31.4972 13.2355C32.5539 13.2355 33.4364 12.6735 33.9827 11.6524C34.4089 10.8427 34.6431 9.71887 34.6431 8.41373C34.6431 7.1086 34.4089 5.98473 33.9827 5.16902C33.7587 4.69626 33.4065 4.29682 32.9668 4.01673C32.5271 3.73665 32.0176 3.58731 31.4972 3.58594C30.4406 3.58594 29.5641 4.14787 29.0178 5.16902C28.5856 5.98473 28.3574 7.10255 28.3574 8.41373C28.3574 9.72491 28.5856 10.8367 29.0178 11.6524C29.2408 12.1247 29.5919 12.5239 30.0306 12.804C30.4693 13.0841 30.9777 13.2337 31.4972 13.2355Z" fill="black"/>
<path id="Vector_4" fill-rule="evenodd" clip-rule="evenodd" d="M36.864 3.29688C36.3837 3.29688 35.9935 3.68962 35.9935 4.17301V14.9162C34.8348 15.2787 32.5414 15.599 29.7618 15.599H28.4411C28.2102 15.599 27.9888 15.6913 27.8255 15.8556C27.6623 16.0199 27.5706 16.2428 27.5706 16.4751C27.5706 16.7075 27.6623 16.9303 27.8255 17.0946C27.9888 17.2589 28.2102 17.3513 28.4411 17.3513H29.7618C31.3468 17.3513 34.0903 17.2123 35.9935 16.7349V19.6594C35.9935 19.8918 36.0852 20.1146 36.2484 20.2789C36.4117 20.4432 36.6331 20.5355 36.864 20.5355C37.0948 20.5355 37.3162 20.4432 37.4795 20.2789C37.6427 20.1146 37.7345 19.8918 37.7345 19.6594V4.17301C37.7345 3.68962 37.3442 3.29688 36.864 3.29688Z" fill="black"/>
</g>
</g>
</svg>
