<svg width="24" height="24" viewBox="0 0 24 24" fill="none" xmlns="http://www.w3.org/2000/svg">
<g id="btn_search">
<path id="Union" fill-rule="evenodd" clip-rule="evenodd" d="M5 11C5 14.3136 7.68628 16.9999 11 16.9999C14.3137 16.9999 17 14.3136 17 11C17 7.68628 14.3137 5 11 5C7.68628 5 5 7.68628 5 11ZM3 11C3 15.4182 6.58172 18.9999 11 18.9999C13.1092 18.9999 15.0278 18.1837 16.4571 16.8498L19.2128 19.6055L19.9199 20.3126L21.3341 18.8984L20.627 18.1913L17.7428 15.3071C18.5386 14.0637 19 12.5857 19 11C19 6.58171 15.4183 3 11 3C6.58172 3 3 6.58171 3 11Z" fill="#757575"/>
</g>
</svg>
